<svg xmlns="http://www.w3.org/2000/svg" xmlns:xlink="http://www.w3.org/1999/xlink" width="500" zoomAndPan="magnify" viewBox="0 0 375 374.999991" height="500" preserveAspectRatio="xMidYMid meet" version="1.0"><defs><g/></defs><rect x="-37.5" width="450" fill="#ffffff" y="-37.499999" height="449.999989" fill-opacity="1"/><rect x="-37.5" width="450" fill="#4b2683" y="-37.499999" height="449.999989" fill-opacity="1"/><path fill="#36b7b5" d="M 271.667969 49.460938 C 276.246094 43.601562 284.980469 41.65625 291.660156 44.875 C 296.816406 47.203125 300.652344 52.242188 301.410156 57.863281 C 302.441406 64.929688 298.285156 72.261719 291.921875 75.367188 C 286.714844 77.964844 280.296875 77.40625 275.390625 74.390625 C 268.4375 81.429688 261.359375 88.34375 254.410156 95.386719 C 231.621094 95.453125 208.835938 95.410156 186.050781 95.3125 C 198.820312 109.136719 207.417969 126.824219 209.746094 145.539062 C 211.839844 161.078125 209.710938 177.136719 203.792969 191.648438 C 199.425781 202.367188 192.71875 212.007812 184.800781 220.40625 C 197.40625 220.359375 210.023438 220.417969 222.632812 220.359375 C 226.039062 217.355469 230.382812 215.09375 235.050781 215.371094 C 244.222656 215.128906 252.351562 223.699219 251.777344 232.828125 C 251.609375 241.574219 243.867188 249.304688 235.054688 249.078125 C 225.417969 249.355469 217.121094 240.054688 218.3125 230.53125 C 203.660156 230.210938 189 230.539062 174.34375 230.367188 C 172.699219 230.308594 171.515625 231.691406 170.164062 232.429688 C 146.527344 248.359375 115.195312 251.636719 88.535156 241.855469 C 64.199219 232.832031 44.203125 212.808594 35.222656 188.457031 C 28.597656 169.765625 27.933594 148.871094 34.011719 129.949219 C 40.273438 110.457031 53.195312 93.132812 70.324219 81.871094 C 98.214844 63.066406 136.839844 62.164062 165.738281 79.289062 C 168.902344 81.085938 171.847656 83.226562 174.871094 85.230469 C 199.78125 85.261719 224.707031 85.238281 249.628906 85.253906 C 255.566406 79.335938 261.417969 73.332031 267.398438 67.46875 C 267.910156 66.855469 268.894531 66.246094 268.457031 65.316406 C 266.96875 59.917969 268.015625 53.785156 271.667969 49.460938 M 283.125 53.902344 C 279.769531 54.5625 277.570312 58.246094 278.386719 61.53125 C 279.039062 64.773438 282.535156 67.15625 285.796875 66.4375 C 289.503906 65.769531 292.117188 61.367188 290.589844 57.84375 C 289.480469 54.960938 286.152344 53.128906 283.125 53.902344 M 103.09375 112.40625 C 103.058594 121.5625 103.03125 130.726562 103.035156 139.882812 C 94.40625 140.078125 85.773438 139.820312 77.144531 139.90625 C 73.765625 139.796875 70.734375 142.652344 70.617188 146.023438 C 70.535156 153.152344 70.609375 160.292969 70.589844 167.425781 C 70.417969 170.957031 73.625 174.097656 77.136719 173.945312 C 85.738281 173.917969 94.339844 173.988281 102.941406 173.890625 C 103.109375 183.261719 102.929688 192.636719 103.011719 202.003906 C 102.980469 205.328125 106.160156 208.050781 109.414062 207.84375 C 116.6875 207.855469 123.964844 207.867188 131.230469 207.738281 C 134.445312 207.746094 137.261719 204.753906 137.015625 201.539062 C 136.96875 192.347656 137.03125 183.148438 137.027344 173.953125 C 145.6875 173.929688 154.347656 173.941406 163.007812 173.929688 C 166.542969 174.101562 169.761719 170.949219 169.65625 167.414062 C 169.507812 160.292969 169.769531 153.167969 169.660156 146.042969 C 169.574219 142.824219 166.722656 139.996094 163.496094 139.96875 C 154.664062 139.90625 145.832031 140 136.996094 139.902344 C 136.96875 130.730469 136.992188 121.558594 136.960938 112.386719 C 136.984375 109.316406 134.304688 106.484375 131.207031 106.484375 C 123.785156 106.5 116.363281 106.507812 108.941406 106.480469 C 105.78125 106.453125 103.160156 109.316406 103.09375 112.40625 M 233.347656 226.046875 C 230 226.984375 227.847656 230.898438 228.984375 234.210938 C 229.867188 236.910156 232.753906 238.660156 235.558594 238.390625 C 238.871094 238.375 241.628906 235.136719 241.386719 231.882812 C 241.195312 228.058594 237.125 224.800781 233.347656 226.046875 Z M 233.347656 226.046875 " fill-opacity="1" fill-rule="nonzero"/><path fill="#ffffff" d="M 313.261719 96.820312 C 315.070312 89.738281 322.144531 84.625 329.398438 84.765625 C 337.601562 84.625 345.140625 91.464844 346.007812 99.585938 C 347.167969 108.097656 340.703125 116.699219 332.21875 118.011719 C 324.214844 119.664062 315.875 114.460938 313.210938 106.859375 C 304.058594 106.878906 294.910156 106.886719 285.757812 106.859375 C 285.132812 106.75 284.742188 107.28125 284.351562 107.652344 C 279.605469 112.382812 274.863281 117.125 270.046875 121.785156 C 252.582031 121.828125 235.121094 121.90625 217.664062 121.738281 C 216.492188 118.410156 215.121094 115.148438 213.484375 112.019531 C 230.773438 111.726562 248.066406 111.988281 265.351562 111.867188 C 270.292969 106.882812 275.179688 101.835938 280.261719 96.992188 C 291.257812 96.835938 302.261719 96.964844 313.261719 96.820312 M 327.15625 95.460938 C 324.652344 96.304688 322.65625 98.796875 322.863281 101.511719 C 322.820312 104.945312 326.011719 107.910156 329.414062 107.863281 C 333.414062 107.992188 336.59375 103.492188 335.386719 99.742188 C 334.449219 96.386719 330.429688 94.332031 327.15625 95.460938 Z M 327.15625 95.460938 " fill-opacity="1" fill-rule="nonzero"/><path fill="#36b7b5" d="M 283.472656 139.046875 C 285.800781 132.445312 292.4375 127.511719 299.527344 127.78125 C 308.3125 127.574219 316.289062 135.398438 316.3125 144.179688 C 316.625 152.25 310.375 159.917969 302.417969 161.28125 C 294.761719 162.917969 286.484375 158.121094 283.964844 150.746094 C 283.644531 150.234375 283.71875 149.109375 282.898438 149.160156 C 263.128906 149.070312 243.351562 149.199219 223.574219 149.09375 C 223.257812 145.769531 222.910156 142.441406 222.34375 139.148438 C 242.714844 138.976562 263.09375 139.222656 283.472656 139.046875 M 298.300781 138.292969 C 295.394531 138.890625 292.9375 141.59375 293.121094 144.644531 C 293.136719 147.847656 295.863281 150.679688 299.039062 150.914062 C 302.449219 151.378906 305.710938 148.488281 305.917969 145.113281 C 306.308594 141.125 302.214844 137.464844 298.300781 138.292969 Z M 298.300781 138.292969 " fill-opacity="1" fill-rule="nonzero"/><path fill="#ffffff" d="M 223.484375 166.515625 C 235.546875 166.148438 247.632812 166.460938 259.703125 166.363281 C 268.28125 174.910156 277.035156 183.292969 285.484375 191.972656 C 294.730469 192.023438 303.976562 191.941406 313.21875 191.964844 C 315.347656 185.085938 322.128906 179.960938 329.40625 180.335938 C 337.496094 180.269531 344.949219 186.882812 345.976562 194.890625 C 347.382812 203.804688 340.332031 212.972656 331.332031 213.847656 C 323.421875 215.136719 315.519531 209.667969 313.160156 202.171875 C 302.320312 202.039062 291.476562 202.21875 280.636719 202.09375 C 272.222656 193.558594 263.761719 185.0625 255.238281 176.632812 C 244.128906 176.613281 233.023438 176.617188 221.914062 176.640625 C 222.574219 173.289062 223.273438 169.933594 223.484375 166.515625 M 326.71875 191.335938 C 322.246094 193.082031 321.636719 199.871094 325.714844 202.386719 C 329.4375 205.082031 335.277344 202.378906 335.566406 197.773438 C 336.210938 193.171875 330.917969 189.265625 326.71875 191.335938 Z M 326.71875 191.335938 " fill-opacity="1" fill-rule="nonzero"/><path fill="#36b7b5" d="M 212.925781 203.773438 C 214.558594 200.503906 215.9375 197.128906 217.355469 193.773438 C 226.738281 193.824219 236.125 193.726562 245.503906 193.820312 C 255.996094 203.738281 266.121094 214.097656 276.371094 224.285156 C 281.144531 221.816406 287.101562 221.25 291.964844 223.800781 C 298.511719 226.921875 302.503906 234.542969 301.234375 241.699219 C 300.054688 249.492188 292.761719 255.855469 284.832031 255.765625 C 276.773438 256.085938 269.292969 249.660156 267.949219 241.796875 C 267.28125 238.441406 267.964844 234.984375 269.136719 231.824219 C 259.613281 222.542969 250.234375 213.113281 240.796875 203.757812 C 231.507812 203.738281 222.214844 203.78125 212.925781 203.773438 M 282.121094 232.980469 C 279.132812 234.027344 277.378906 237.648438 278.441406 240.636719 C 279.386719 243.941406 283.289062 246.136719 286.574219 244.953125 C 290.101562 243.808594 292.089844 239.253906 290.253906 235.960938 C 288.8125 233.082031 285.070312 231.796875 282.121094 232.980469 Z M 282.121094 232.980469 " fill-opacity="1" fill-rule="nonzero"/><g fill="#ffffff" fill-opacity="1"><g transform="translate(222.636469, 323.739624)"><g><path d="M 26.109375 -7.203125 L 10.515625 -7.203125 L 7.53125 0 L -0.4375 0 L 14.546875 -33.59375 L 22.21875 -33.59375 L 37.234375 0 L 29.078125 0 Z M 23.65625 -13.09375 L 18.328125 -25.953125 L 13 -13.09375 Z M 23.65625 -13.09375 "/></g></g></g><g fill="#ffffff" fill-opacity="1"><g transform="translate(259.392936, 323.739624)"><g><path d="M 3.984375 -33.59375 L 11.75 -33.59375 L 11.75 -6.328125 L 28.59375 -6.328125 L 28.59375 0 L 3.984375 0 Z M 3.984375 -33.59375 "/></g></g></g><g fill="#ffffff" fill-opacity="1"><g transform="translate(288.375835, 323.739624)"><g><path d="M 3.984375 -33.59375 L 11.75 -33.59375 L 11.75 -6.328125 L 28.59375 -6.328125 L 28.59375 0 L 3.984375 0 Z M 3.984375 -33.59375 "/></g></g></g><g fill="#ffffff" fill-opacity="1"><g transform="translate(317.358735, 323.739624)"><g><path d="M 20.109375 -11.90625 L 20.109375 0 L 12.328125 0 L 12.328125 -12 L -0.671875 -33.59375 L 7.578125 -33.59375 L 16.546875 -18.671875 L 25.53125 -33.59375 L 33.15625 -33.59375 Z M 20.109375 -11.90625 "/></g></g></g><g fill="#ffffff" fill-opacity="1"><g transform="translate(33.170679, 333.435412)"><g><path d="M 51.65625 0 L 51.515625 -27.296875 L 38.265625 -5.078125 L 31.796875 -5.078125 L 18.625 -26.5625 L 18.625 0 L 5.15625 0 L 5.15625 -51.515625 L 17.140625 -51.515625 L 35.25 -21.78125 L 52.90625 -51.515625 L 64.90625 -51.515625 L 65.0625 0 Z M 51.65625 0 "/></g></g></g><g fill="#ffffff" fill-opacity="1"><g transform="translate(103.366426, 333.435412)"><g><path d="M 46.515625 -11.265625 L 46.515625 0 L 5.15625 0 L 5.15625 -51.515625 L 45.546875 -51.515625 L 45.546875 -40.25 L 19.578125 -40.25 L 19.578125 -31.578125 L 42.46875 -31.578125 L 42.46875 -20.6875 L 19.578125 -20.6875 L 19.578125 -11.265625 Z M 46.515625 -11.265625 "/></g></g></g><g fill="#ffffff" fill-opacity="1"><g transform="translate(152.812489, 333.435412)"><g><path d="M 5.15625 -51.515625 L 29.515625 -51.515625 C 35.148438 -51.515625 40.148438 -50.457031 44.515625 -48.34375 C 48.890625 -46.238281 52.273438 -43.25 54.671875 -39.375 C 57.078125 -35.5 58.28125 -30.960938 58.28125 -25.765625 C 58.28125 -20.554688 57.078125 -16.015625 54.671875 -12.140625 C 52.273438 -8.265625 48.890625 -5.269531 44.515625 -3.15625 C 40.148438 -1.050781 35.148438 0 29.515625 0 L 5.15625 0 Z M 28.921875 -11.625 C 33.335938 -11.625 36.878906 -12.875 39.546875 -15.375 C 42.222656 -17.882812 43.5625 -21.347656 43.5625 -25.765625 C 43.5625 -30.171875 42.222656 -33.625 39.546875 -36.125 C 36.878906 -38.632812 33.335938 -39.890625 28.921875 -39.890625 L 19.71875 -39.890625 L 19.71875 -11.625 Z M 28.921875 -11.625 "/></g></g></g></svg>