<?xml version="1.0" encoding="UTF-8"?>
<svg id="Layer_1" xmlns="http://www.w3.org/2000/svg" version="1.1" xmlns:xlink="http://www.w3.org/1999/xlink" viewBox="0 0 735.9 515.38">
  <!-- Generator: Adobe Illustrator 29.5.0, SVG Export Plug-In . SVG Version: 2.1.0 Build 137)  -->
  <defs>
    <style>
      .st0 {
        clip-path: url(#clippath-6);
      }

      .st1 {
        clip-path: url(#clippath-7);
      }

      .st2 {
        clip-path: url(#clippath-4);
      }

      .st3 {
        clip-path: url(#clippath-9);
      }

      .st4 {
        fill: #fff;
      }

      .st5 {
        fill: #4d2d82;
      }

      .st6 {
        font-size: 108px;
      }

      .st6, .st7 {
        font-family: Montserrat-Bold, Montserrat;
        font-weight: 700;
      }

      .st6, .st7, .st8 {
        fill: #231f20;
      }

      .st9 {
        fill: none;
      }

      .st10 {
        clip-path: url(#clippath-1);
      }

      .st11 {
        clip-path: url(#clippath-5);
      }

      .st12 {
        clip-path: url(#clippath-8);
      }

      .st13 {
        fill: #36b6b4;
      }

      .st14 {
        clip-path: url(#clippath-3);
      }

      .st7 {
        font-size: 169px;
      }

      .st8 {
        font-family: Montserrat-Regular, Montserrat;
        font-size: 32px;
      }

      .st15 {
        clip-path: url(#clippath-2);
      }

      .st16 {
        clip-path: url(#clippath);
      }
    </style>
    <clipPath id="clippath">
      <rect class="st9" x="114.98" y="7.08" width="451.06" height="342.01"/>
    </clipPath>
    <clipPath id="clippath-1">
      <rect class="st9" x="109.03" y="5.83" width="535.65" height="354.43" rx="123.92" ry="123.92"/>
    </clipPath>
    <clipPath id="clippath-2">
      <rect class="st9" x="418.99" y="76.47" width="221.4" height="62.78"/>
    </clipPath>
    <clipPath id="clippath-3">
      <rect class="st9" x="109.03" y="5.83" width="535.65" height="354.43" rx="123.92" ry="123.92"/>
    </clipPath>
    <clipPath id="clippath-4">
      <rect class="st9" x="433.86" y="147.52" width="156.96" height="57.83"/>
    </clipPath>
    <clipPath id="clippath-5">
      <rect class="st9" x="109.03" y="5.83" width="535.65" height="354.43" rx="123.92" ry="123.92"/>
    </clipPath>
    <clipPath id="clippath-6">
      <rect class="st9" x="432.21" y="210.3" width="208.18" height="80.96"/>
    </clipPath>
    <clipPath id="clippath-7">
      <rect class="st9" x="109.03" y="5.83" width="535.65" height="354.43" rx="123.92" ry="123.92"/>
    </clipPath>
    <clipPath id="clippath-8">
      <rect class="st9" x="417.34" y="256.56" width="148.7" height="103.66"/>
    </clipPath>
    <clipPath id="clippath-9">
      <rect class="st9" x="109.03" y="5.83" width="535.65" height="354.43" rx="123.92" ry="123.92"/>
    </clipPath>
  </defs>
  <circle class="st4" cx="262.73" cy="196.59" r="100.27"/>
  <g class="st16">
    <g class="st10">
      <path class="st5" d="M515.92,18.47c7.56-9.68,22-12.9,33.03-7.58,8.52,3.85,14.86,12.18,16.11,21.46,1.7,11.68-5.16,23.79-15.68,28.92-8.6,4.29-19.21,3.37-27.31-1.61-11.49,11.64-23.18,23.05-34.66,34.69-37.65.11-75.3.04-112.94-.12,21.1,22.83,35.3,52.06,39.15,82.98,3.46,25.67-.06,52.21-9.84,76.18-7.22,17.72-18.3,33.64-31.38,47.51,20.83-.08,41.67.03,62.51-.08,5.63-4.96,12.8-8.69,20.52-8.24,15.15-.4,28.58,13.77,27.64,28.84-.28,14.46-13.07,27.22-27.63,26.85-15.92.46-29.63-14.91-27.66-30.64-24.21-.54-48.43,0-72.65-.28-2.72-.09-4.67,2.19-6.91,3.41-39.05,26.33-90.82,31.73-134.87,15.57-40.21-14.91-73.25-47.99-88.08-88.22-10.95-30.88-12.04-65.4-2-96.67,10.35-32.2,31.7-60.83,60-79.43,46.08-31.07,109.9-32.57,157.64-4.27,5.23,2.97,10.09,6.51,15.09,9.82,41.16.05,82.34.01,123.52.04,9.81-9.78,19.48-19.69,29.36-29.38.85-1.01,2.47-2.02,1.75-3.56-2.46-8.91-.73-19.05,5.31-26.2M534.85,25.81c-5.54,1.09-9.18,7.18-7.83,12.6,1.08,5.36,6.85,9.29,12.24,8.11,6.12-1.1,10.44-8.38,7.92-14.21-1.83-4.76-7.33-7.78-12.33-6.51M237.4,122.47c-.06,15.13-.1,30.27-.1,45.4-14.26.32-28.52-.1-42.78.04-5.58-.18-10.59,4.54-10.78,10.11-.14,11.78-.01,23.58-.05,35.36-.28,5.84,5.01,11.02,10.82,10.77,14.21-.05,28.42.07,42.63-.08.28,15.48-.02,30.97.12,46.44-.05,5.49,5.2,9.99,10.58,9.66,12.02.01,24.04.04,36.05-.18,5.31.01,9.96-4.93,9.56-10.24-.08-15.19.03-30.39.02-45.57,14.31-.04,28.62-.03,42.93-.04,5.84.28,11.16-4.93,10.98-10.77-.25-11.77.19-23.54,0-35.32-.14-5.32-4.85-9.99-10.18-10.04-14.59-.1-29.18.06-43.78-.11-.05-15.15,0-30.31-.06-45.46.04-5.08-4.39-9.76-9.51-9.76-12.26.03-24.53.04-36.79,0-5.22-.05-9.55,4.69-9.66,9.79M452.61,310.24c-5.53,1.55-9.09,8.01-7.21,13.49,1.46,4.45,6.23,7.34,10.86,6.9,5.47-.03,10.03-5.38,9.63-10.75-.32-6.32-7.04-11.71-13.28-9.64Z"/>
    </g>
  </g>
  <g class="st15">
    <g class="st14">
      <path class="st13" d="M584.64,96.73c2.99-11.71,14.68-20.15,26.66-19.92,13.55-.23,26.01,11.07,27.44,24.49,1.92,14.06-8.76,28.27-22.78,30.44-13.22,2.74-27-5.87-31.41-18.43-15.12.03-30.24.05-45.36,0-1.03-.18-1.68.7-2.32,1.31-7.84,7.82-15.68,15.65-23.63,23.35-28.86.07-57.7.21-86.55-.08-1.94-5.5-4.2-10.89-6.91-16.06,28.57-.48,57.14-.05,85.7-.25,8.16-8.24,16.24-16.57,24.63-24.58,18.17-.26,36.35-.05,54.52-.28M607.6,94.48c-4.14,1.39-7.43,5.52-7.09,10-.07,5.67,5.2,10.58,10.82,10.5,6.61.21,11.86-7.23,9.87-13.42-1.55-5.54-8.19-8.94-13.6-7.07Z"/>
    </g>
  </g>
  <g class="st2">
    <g class="st11">
      <path class="st5" d="M535.42,166.5c3.85-10.91,14.81-19.06,26.53-18.61,14.51-.35,27.69,12.58,27.73,27.09.52,13.33-9.81,26.01-22.96,28.26-12.65,2.7-26.33-5.21-30.49-17.41-.53-.85-.41-2.7-1.76-2.61-32.66-.15-65.34.06-98.02-.11-.52-5.49-1.1-10.99-2.03-16.44,33.66-.28,67.33.13,101-.16M559.92,165.25c-4.8.99-8.86,5.45-8.56,10.49.03,5.29,4.53,9.97,9.78,10.37,5.63.77,11.02-4.01,11.37-9.59.65-6.59-6.12-12.64-12.59-11.26Z"/>
    </g>
  </g>
  <g class="st0">
    <g class="st1">
      <path class="st13" d="M436.31,211.87c19.93-.6,39.9-.08,59.84-.25,14.17,14.13,28.64,27.98,42.6,42.31,15.28.08,30.55-.05,45.82,0,3.52-11.37,14.72-19.84,26.75-19.22,13.37-.11,25.68,10.82,27.38,24.05,2.32,14.73-9.33,29.87-24.2,31.31-13.07,2.14-26.13-6.91-30.02-19.29-17.91-.22-35.83.08-53.74-.13-13.9-14.1-27.88-28.13-41.96-42.07-18.36-.03-36.7-.02-55.06.02,1.09-5.54,2.25-11.09,2.59-16.74M606.88,252.88c-7.39,2.88-8.4,14.1-1.66,18.26,6.15,4.45,15.8-.02,16.28-7.62,1.06-7.61-7.68-14.06-14.62-10.64Z"/>
    </g>
  </g>
  <g class="st12">
    <g class="st3">
      <path class="st5" d="M418.87,273.43c2.7-5.4,4.98-10.97,7.32-16.52,15.5.09,31.01-.08,46.51.08,17.34,16.39,34.06,33.51,51,50.33,7.89-4.07,17.73-5.01,25.76-.8,10.82,5.16,17.41,17.75,15.32,29.57-1.95,12.88-14,23.4-27.1,23.25-13.31.52-25.67-10.09-27.89-23.08-1.1-5.55.03-11.26,1.96-16.48-15.73-15.33-31.23-30.91-46.82-46.37-15.35-.03-30.7.05-46.05.03M533.19,321.69c-4.94,1.73-7.84,7.72-6.08,12.65,1.56,5.46,8.01,9.09,13.44,7.13,5.83-1.89,9.11-9.42,6.08-14.85-2.38-4.76-8.56-6.88-13.44-4.93Z"/>
    </g>
  </g>
  <text class="st7" transform="translate(12.01 503.94)"><tspan x="0" y="0">MED</tspan></text>
  <text class="st6" transform="translate(440.27 462.53)"><tspan x="0" y="0">ALLY</tspan></text>
  <text class="st8" transform="translate(437.3 498.94)"><tspan x="0" y="0">By Calonji.Inc.</tspan></text>
</svg>