<svg xmlns="http://www.w3.org/2000/svg" xmlns:xlink="http://www.w3.org/1999/xlink" width="500" zoomAndPan="magnify" viewBox="0 0 375 374.999991" height="500" preserveAspectRatio="xMidYMid meet" version="1.0"><defs><g/><clipPath id="2a9ae181ff"><path d="M 29 81 L 302 81 L 302 288 L 29 288 Z M 29 81 " clip-rule="nonzero"/></clipPath><clipPath id="a53ca5a11d"><path d="M 25.398438 155.242188 L 25.398438 219.757812 C 25.398438 261.179688 58.976562 294.757812 100.398438 294.757812 L 274.601562 294.757812 C 316.023438 294.757812 349.601562 261.179688 349.601562 219.757812 L 349.601562 155.242188 C 349.601562 113.820312 316.023438 80.242188 274.601562 80.242188 L 100.398438 80.242188 C 58.976562 80.242188 25.398438 113.820312 25.398438 155.242188 Z M 25.398438 155.242188 " clip-rule="nonzero"/></clipPath><clipPath id="61ecf19f13"><path d="M 213 123 L 347 123 L 347 161 L 213 161 Z M 213 123 " clip-rule="nonzero"/></clipPath><clipPath id="2eca7e3a46"><path d="M 25.398438 155.242188 L 25.398438 219.757812 C 25.398438 261.179688 58.976562 294.757812 100.398438 294.757812 L 274.601562 294.757812 C 316.023438 294.757812 349.601562 261.179688 349.601562 219.757812 L 349.601562 155.242188 C 349.601562 113.820312 316.023438 80.242188 274.601562 80.242188 L 100.398438 80.242188 C 58.976562 80.242188 25.398438 113.820312 25.398438 155.242188 Z M 25.398438 155.242188 " clip-rule="nonzero"/></clipPath><clipPath id="9d830a1cc4"><path d="M 222 166 L 317 166 L 317 201 L 222 201 Z M 222 166 " clip-rule="nonzero"/></clipPath><clipPath id="59af6944da"><path d="M 25.398438 155.242188 L 25.398438 219.757812 C 25.398438 261.179688 58.976562 294.757812 100.398438 294.757812 L 274.601562 294.757812 C 316.023438 294.757812 349.601562 261.179688 349.601562 219.757812 L 349.601562 155.242188 C 349.601562 113.820312 316.023438 80.242188 274.601562 80.242188 L 100.398438 80.242188 C 58.976562 80.242188 25.398438 113.820312 25.398438 155.242188 Z M 25.398438 155.242188 " clip-rule="nonzero"/></clipPath><clipPath id="99a3a7165c"><path d="M 221 204 L 347 204 L 347 253 L 221 253 Z M 221 204 " clip-rule="nonzero"/></clipPath><clipPath id="ab94949899"><path d="M 25.398438 155.242188 L 25.398438 219.757812 C 25.398438 261.179688 58.976562 294.757812 100.398438 294.757812 L 274.601562 294.757812 C 316.023438 294.757812 349.601562 261.179688 349.601562 219.757812 L 349.601562 155.242188 C 349.601562 113.820312 316.023438 80.242188 274.601562 80.242188 L 100.398438 80.242188 C 58.976562 80.242188 25.398438 113.820312 25.398438 155.242188 Z M 25.398438 155.242188 " clip-rule="nonzero"/></clipPath><clipPath id="48031715c9"><path d="M 212 232 L 302 232 L 302 294.742188 L 212 294.742188 Z M 212 232 " clip-rule="nonzero"/></clipPath><clipPath id="0484998c6e"><path d="M 25.398438 155.242188 L 25.398438 219.757812 C 25.398438 261.179688 58.976562 294.757812 100.398438 294.757812 L 274.601562 294.757812 C 316.023438 294.757812 349.601562 261.179688 349.601562 219.757812 L 349.601562 155.242188 C 349.601562 113.820312 316.023438 80.242188 274.601562 80.242188 L 100.398438 80.242188 C 58.976562 80.242188 25.398438 113.820312 25.398438 155.242188 Z M 25.398438 155.242188 " clip-rule="nonzero"/></clipPath></defs><g clip-path="url(#2a9ae181ff)"><g clip-path="url(#a53ca5a11d)"><path fill="#4b2683" d="M 271.667969 87.898438 C 276.246094 82.039062 284.980469 80.09375 291.660156 83.3125 C 296.816406 85.640625 300.652344 90.683594 301.410156 96.300781 C 302.441406 103.371094 298.285156 110.699219 291.921875 113.804688 C 286.714844 116.402344 280.296875 115.84375 275.390625 112.828125 C 268.4375 119.871094 261.359375 126.78125 254.410156 133.824219 C 231.621094 133.890625 208.835938 133.847656 186.050781 133.753906 C 198.820312 147.574219 207.417969 165.265625 209.746094 183.976562 C 211.839844 199.515625 209.710938 215.574219 203.792969 230.085938 C 199.425781 240.808594 192.71875 250.449219 184.800781 258.84375 C 197.40625 258.796875 210.023438 258.859375 222.632812 258.796875 C 226.039062 255.796875 230.382812 253.535156 235.050781 253.808594 C 244.222656 253.566406 252.351562 262.140625 251.777344 271.265625 C 251.609375 280.015625 243.867188 287.742188 235.054688 287.515625 C 225.417969 287.796875 217.121094 278.492188 218.3125 268.972656 C 203.660156 268.648438 189 268.976562 174.34375 268.804688 C 172.699219 268.75 171.515625 270.128906 170.164062 270.867188 C 146.527344 286.800781 115.195312 290.074219 88.535156 280.292969 C 64.199219 271.269531 44.203125 251.25 35.222656 226.898438 C 28.597656 208.207031 27.933594 187.3125 34.011719 168.386719 C 40.273438 148.898438 53.195312 131.570312 70.324219 120.3125 C 98.214844 101.507812 136.839844 100.601562 165.738281 117.726562 C 168.902344 119.523438 171.847656 121.667969 174.871094 123.667969 C 199.78125 123.699219 224.707031 123.675781 249.628906 123.691406 C 255.566406 117.773438 261.417969 111.773438 267.398438 105.90625 C 267.910156 105.296875 268.894531 104.683594 268.457031 103.753906 C 266.96875 98.359375 268.015625 92.222656 271.667969 87.898438 M 283.125 92.339844 C 279.769531 93 277.570312 96.683594 278.386719 99.96875 C 279.039062 103.214844 282.535156 105.59375 285.796875 104.878906 C 289.503906 104.210938 292.117188 99.804688 290.589844 96.28125 C 289.480469 93.398438 286.152344 91.570312 283.125 92.339844 M 103.09375 150.84375 C 103.058594 160 103.03125 169.164062 103.035156 178.320312 C 94.40625 178.515625 85.773438 178.261719 77.144531 178.34375 C 73.765625 178.234375 70.734375 181.089844 70.617188 184.460938 C 70.535156 191.59375 70.609375 198.734375 70.589844 205.863281 C 70.417969 209.398438 73.625 212.535156 77.136719 212.382812 C 85.738281 212.355469 94.339844 212.425781 102.941406 212.332031 C 103.109375 221.699219 102.929688 231.074219 103.011719 240.441406 C 102.980469 243.765625 106.160156 246.488281 109.414062 246.285156 C 116.6875 246.292969 123.964844 246.308594 131.230469 246.175781 C 134.445312 246.183594 137.261719 243.191406 137.015625 239.976562 C 136.96875 230.785156 137.03125 221.585938 137.027344 212.394531 C 145.6875 212.371094 154.347656 212.378906 163.007812 212.371094 C 166.542969 212.539062 169.761719 209.386719 169.65625 205.855469 C 169.507812 198.734375 169.769531 191.605469 169.660156 184.480469 C 169.574219 181.261719 166.722656 178.433594 163.496094 178.40625 C 154.664062 178.34375 145.832031 178.441406 136.996094 178.339844 C 136.96875 169.171875 136.992188 159.996094 136.960938 150.828125 C 136.984375 147.753906 134.304688 144.921875 131.207031 144.921875 C 123.785156 144.9375 116.363281 144.945312 108.941406 144.917969 C 105.78125 144.890625 103.160156 147.753906 103.09375 150.84375 M 233.347656 264.488281 C 230 265.425781 227.847656 269.335938 228.984375 272.652344 C 229.867188 275.347656 232.753906 277.097656 235.558594 276.828125 C 238.871094 276.8125 241.628906 273.574219 241.386719 270.324219 C 241.195312 266.496094 237.125 263.238281 233.347656 264.488281 Z M 233.347656 264.488281 " fill-opacity="1" fill-rule="nonzero"/></g></g><g clip-path="url(#61ecf19f13)"><g clip-path="url(#2eca7e3a46)"><path fill="#36b7b5" d="M 313.261719 135.261719 C 315.070312 128.175781 322.144531 123.066406 329.398438 123.203125 C 337.601562 123.066406 345.140625 129.902344 346.007812 138.023438 C 347.167969 146.535156 340.703125 155.136719 332.21875 156.449219 C 324.214844 158.105469 315.875 152.898438 313.210938 145.296875 C 304.058594 145.316406 294.910156 145.328125 285.757812 145.296875 C 285.132812 145.1875 284.742188 145.71875 284.351562 146.089844 C 279.605469 150.820312 274.863281 155.5625 270.046875 160.222656 C 252.582031 160.265625 235.121094 160.347656 217.664062 160.175781 C 216.492188 156.847656 215.121094 153.585938 213.484375 150.457031 C 230.773438 150.167969 248.066406 150.429688 265.351562 150.304688 C 270.292969 145.320312 275.179688 140.277344 280.261719 135.429688 C 291.257812 135.273438 302.261719 135.402344 313.261719 135.261719 M 327.15625 133.898438 C 324.652344 134.742188 322.65625 137.238281 322.863281 139.949219 C 322.820312 143.382812 326.011719 146.351562 329.414062 146.304688 C 333.414062 146.429688 336.59375 141.929688 335.386719 138.179688 C 334.449219 134.824219 330.429688 132.769531 327.15625 133.898438 Z M 327.15625 133.898438 " fill-opacity="1" fill-rule="nonzero"/></g></g><g clip-path="url(#9d830a1cc4)"><g clip-path="url(#59af6944da)"><path fill="#4b2683" d="M 283.472656 177.488281 C 285.800781 170.882812 292.4375 165.953125 299.527344 166.222656 C 308.3125 166.011719 316.289062 173.835938 316.3125 182.617188 C 316.625 190.6875 310.375 198.359375 302.417969 199.71875 C 294.761719 201.355469 286.484375 196.5625 283.964844 189.183594 C 283.644531 188.671875 283.71875 187.546875 282.898438 187.601562 C 263.128906 187.511719 243.351562 187.636719 223.574219 187.535156 C 223.257812 184.210938 222.910156 180.882812 222.34375 177.585938 C 242.714844 177.414062 263.09375 177.664062 283.472656 177.488281 M 298.300781 176.734375 C 295.394531 177.332031 292.9375 180.035156 293.121094 183.082031 C 293.136719 186.285156 295.863281 189.117188 299.039062 189.355469 C 302.449219 189.820312 305.710938 186.925781 305.917969 183.550781 C 306.308594 179.5625 302.214844 175.902344 298.300781 176.734375 Z M 298.300781 176.734375 " fill-opacity="1" fill-rule="nonzero"/></g></g><g clip-path="url(#99a3a7165c)"><g clip-path="url(#ab94949899)"><path fill="#36b7b5" d="M 223.484375 204.953125 C 235.546875 204.589844 247.632812 204.902344 259.703125 204.800781 C 268.28125 213.351562 277.035156 221.734375 285.484375 230.410156 C 294.730469 230.460938 303.976562 230.382812 313.21875 230.40625 C 315.347656 223.527344 322.128906 218.398438 329.40625 218.773438 C 337.496094 218.707031 344.949219 225.324219 345.976562 233.332031 C 347.382812 242.246094 340.332031 251.410156 331.332031 252.285156 C 323.421875 253.578125 315.519531 248.105469 313.160156 240.609375 C 302.320312 240.476562 291.476562 240.65625 280.636719 240.53125 C 272.222656 232 263.761719 223.503906 255.238281 215.070312 C 244.128906 215.054688 233.023438 215.058594 221.914062 215.082031 C 222.574219 211.730469 223.273438 208.371094 223.484375 204.953125 M 326.71875 229.773438 C 322.246094 231.519531 321.636719 238.308594 325.714844 240.828125 C 329.4375 243.519531 335.277344 240.816406 335.566406 236.214844 C 336.210938 231.609375 330.917969 227.703125 326.71875 229.773438 Z M 326.71875 229.773438 " fill-opacity="1" fill-rule="nonzero"/></g></g><g clip-path="url(#48031715c9)"><g clip-path="url(#0484998c6e)"><path fill="#4b2683" d="M 212.925781 242.210938 C 214.558594 238.945312 215.9375 235.570312 217.355469 232.210938 C 226.738281 232.265625 236.125 232.164062 245.503906 232.257812 C 255.996094 242.179688 266.121094 252.539062 276.371094 262.722656 C 281.144531 260.257812 287.101562 259.6875 291.964844 262.238281 C 298.511719 265.359375 302.503906 272.984375 301.234375 280.136719 C 300.054688 287.933594 292.761719 294.296875 284.832031 294.207031 C 276.773438 294.523438 269.292969 288.097656 267.949219 280.238281 C 267.28125 276.878906 267.964844 273.425781 269.136719 270.261719 C 259.613281 260.984375 250.234375 251.550781 240.796875 242.195312 C 231.507812 242.179688 222.214844 242.222656 212.925781 242.210938 M 282.121094 271.417969 C 279.132812 272.464844 277.378906 276.089844 278.441406 279.074219 C 279.386719 282.378906 283.289062 284.574219 286.574219 283.390625 C 290.101562 282.246094 292.089844 277.691406 290.253906 274.402344 C 288.8125 271.523438 285.070312 270.238281 282.121094 271.417969 Z M 282.121094 271.417969 " fill-opacity="1" fill-rule="nonzero"/></g></g><g fill="#ffffff" fill-opacity="1"><g transform="translate(201.439322, 349.861573)"><g><path d="M 3.546875 0 L 3.546875 -1.875 L 2.625 -0.34375 L 2.1875 -0.34375 L 1.28125 -1.828125 L 1.28125 0 L 0.359375 0 L 0.359375 -3.546875 L 1.171875 -3.546875 L 2.421875 -1.5 L 3.640625 -3.546875 L 4.46875 -3.546875 L 4.46875 0 Z M 3.546875 0 "/></g></g></g><g fill="#ffffff" fill-opacity="1"><g transform="translate(206.261648, 349.861573)"><g><path d="M 3.203125 -0.78125 L 3.203125 0 L 0.359375 0 L 0.359375 -3.546875 L 3.140625 -3.546875 L 3.140625 -2.765625 L 1.34375 -2.765625 L 1.34375 -2.171875 L 2.921875 -2.171875 L 2.921875 -1.421875 L 1.34375 -1.421875 L 1.34375 -0.78125 Z M 3.203125 -0.78125 "/></g></g></g><g fill="#ffffff" fill-opacity="1"><g transform="translate(209.658507, 349.861573)"><g><path d="M 0.359375 -3.546875 L 2.03125 -3.546875 C 2.414062 -3.546875 2.757812 -3.472656 3.0625 -3.328125 C 3.363281 -3.179688 3.597656 -2.972656 3.765625 -2.703125 C 3.929688 -2.441406 4.015625 -2.128906 4.015625 -1.765625 C 4.015625 -1.410156 3.929688 -1.097656 3.765625 -0.828125 C 3.597656 -0.566406 3.363281 -0.363281 3.0625 -0.21875 C 2.757812 -0.0703125 2.414062 0 2.03125 0 L 0.359375 0 Z M 1.984375 -0.796875 C 2.285156 -0.796875 2.53125 -0.878906 2.71875 -1.046875 C 2.90625 -1.222656 3 -1.460938 3 -1.765625 C 3 -2.078125 2.90625 -2.316406 2.71875 -2.484375 C 2.53125 -2.660156 2.285156 -2.75 1.984375 -2.75 L 1.359375 -2.75 L 1.359375 -0.796875 Z M 1.984375 -0.796875 "/></g></g></g></svg>